<?xml version="1.0" standalone="no"?>
<!DOCTYPE svg PUBLIC "-//W3C//DTD SVG 20010904//EN"
 "http://www.w3.org/TR/2001/REC-SVG-20010904/DTD/svg10.dtd">
<svg version="1.0" xmlns="http://www.w3.org/2000/svg"
 width="425.000000pt" height="425.000000pt" viewBox="0 0 425.000000 425.000000"
 preserveAspectRatio="xMidYMid meet">
<metadata>
Created by potrace 1.11, written by Peter Selinger 2001-2013
</metadata>
<g transform="translate(0.000000,425.000000) scale(0.100000,-0.100000)"
fill="#000000" stroke="none">
<path d="M3847 2844 c-1 -1 -47 -5 -102 -9 -117 -8 -126 -9 -185 -20 -25 -5
-48 -8 -52 -7 -9 2 -285 -53 -338 -68 -25 -7 -52 -14 -60 -15 -15 -1 -62 -15
-210 -61 -139 -42 -353 -122 -458 -170 -29 -13 -55 -24 -58 -24 -10 0 -325
-157 -404 -201 -140 -78 -405 -241 -408 -250 -2 -5 -8 -9 -14 -9 -5 0 -53 -30
-106 -67 -53 -38 -113 -79 -134 -93 -42 -29 -261 -198 -298 -230 -14 -12 -45
-39 -70 -59 -105 -85 -128 -123 -94 -152 22 -18 526 -18 548 0 9 8 13 17 10
22 -3 5 -1 8 4 7 5 -2 56 42 114 97 109 104 201 187 253 226 17 13 32 26 35
29 13 13 165 134 255 202 189 142 434 296 643 405 70 36 133 70 140 75 6 6 12
8 12 5 0 -3 26 7 58 22 64 32 323 137 392 158 230 72 470 127 615 139 133 11
141 13 132 38 -5 13 -25 15 -112 14 -58 -1 -106 -3 -108 -4z"/>
<path d="M1562 2570 c29 -38 56 -70 60 -70 5 0 8 -5 8 -11 0 -10 125 -182 166
-227 l21 -24 101 57 c56 31 104 60 106 63 9 14 -172 246 -205 264 -28 15 -58
18 -171 18 l-138 0 52 -70z"/>
<path d="M2200 2014 c-25 -19 -58 -41 -73 -50 -16 -8 -25 -20 -21 -26 4 -6 3
-8 -3 -5 -6 4 -18 -2 -27 -11 -15 -17 -11 -24 55 -113 161 -213 144 -202 317
-204 73 -1 135 2 137 5 4 6 -49 86 -65 100 -4 3 -20 25 -37 50 -17 25 -40 54
-50 65 -10 11 -22 28 -26 38 -3 9 -11 17 -16 17 -5 0 -12 8 -15 18 -4 10 -14
27 -24 38 -10 10 -29 35 -42 54 -30 43 -46 60 -57 60 -4 0 -28 -16 -53 -36z"/>
</g>
</svg>
