<svg xmlns="http://www.w3.org/2000/svg" viewBox="499.083 343.697 281.232 32.607"><defs><style>.a,.b{fill:#fff;}.a{opacity:0;}.c{fill:#aecccb;}.d{fill:#00ffd8;}</style></defs><g transform="translate(492.729 323.962)"><rect class="a" width="280.528" height="32.607" transform="translate(6.355 19.734)"/><path class="b" d="M21.7,31.253l-1.929-4.286H8.134L6.2,31.253H0L10.963,8.5H17.1L28.065,31.253Zm-7.715-17.21L9.966,22.938h7.973Zm19.836,17.21V8.5h5.69V27.064h12.6v4.19H33.821Zm30.316-18.66v5.8H78.571v4.061H64.137v8.8H58.479V8.5H79.471v4.093ZM104,31.253,97.957,22.1H91.464v9.153H85.805V8.5h15.624a11.5,11.5,0,0,1,3.761.419,6.325,6.325,0,0,1,4.533,6.381,7.131,7.131,0,0,1-.611,3c-1.029,2.321-2.989,3.03-5.3,3.449l6.912,9.507ZM91.463,18.072h9.355c1.061,0,3.151-.258,3.151-2.707,0-2.417-1.8-2.868-3.376-2.868h-9.13Zm26.33,13.181V8.5h21.154v4.093H123.484v5.125h14.949v4.061H123.484v5.415H139.59v4.061h-21.8ZM147.82,8.5H160.26c3.665,0,6.911.58,9.516,3.255a11.569,11.569,0,0,1,2.861,8.025c0,4.673-1.961,7.219-3.343,8.509-2.411,2.288-5.144,2.965-9.194,2.965H147.82V8.5Zm12.312,18.724c3.986,0,6.847-1.514,6.847-7.67,0-.709-.032-4-2.089-5.736-1.318-1.128-2.893-1.289-4.854-1.289h-6.558v14.7Z" transform="translate(38.399 16.161)"/><g transform="translate(215.367 19.734)"><path class="c" d="M366.333,17.436a.545.545,0,0,1-.712-.147L359.234,8.72a.138.138,0,0,1,.11-.22h5.167a3.167,3.167,0,0,1,2.726,1.367l3.349,4.493a.552.552,0,0,1-.185.816Q368.3,16.293,366.333,17.436Zm5.382,7.1a.556.556,0,0,0-.112.775L375.4,30.4a3.13,3.13,0,0,0,2.727,1.367h5.167a.138.138,0,0,0,.11-.22l-7.163-9.608a.548.548,0,0,0-.753-.126Q373.621,23.105,371.715,24.538Z" transform="translate(-344.171 -3.831)"/><path class="d" d="M403.987.549A.549.549,0,0,0,403.439,0H403.4c-35.875.028-65.675,25.6-71.285,30.731a1.079,1.079,0,0,0,.727,1.875h10.767a1.08,1.08,0,0,0,.759-.315C375.067,1.61,402.264,1.105,403.407,1.1h.056v0A.546.546,0,0,0,403.987.549Z" transform="translate(-331.767)"/></g></g></svg>